<svg width="14" height="13" viewBox="0 0 14 13" fill="none" xmlns="http://www.w3.org/2000/svg">
<path d="M7 0.5C3.55 0.5 0.75 3.3 0.75 6.75C0.75 10.2 3.55 13 7 13C10.45 13 13.25 10.2 13.25 6.75C13.25 3.3 10.45 0.5 7 0.5ZM7 11.75C4.25 11.75 2 9.5 2 6.75C2 4 4.25 1.75 7 1.75C9.75 1.75 12 4 12 6.75C12 9.5 9.75 11.75 7 11.75Z" fill="white"/>
<path d="M5.34998 4.825C5.57498 4.575 5.84998 4.375 6.17498 4.25C6.49998 4.1 6.82498 4.025 7.17498 4.025C7.59998 4.025 8.02498 4.125 8.37498 4.35C8.72498 4.55 9.04998 4.85 9.27498 5.175L10.175 4.5C9.82498 4.05 9.39998 3.65 8.89998 3.4C8.37498 3.125 7.82498 3 7.19998 3C6.69998 3 6.19998 3.1 5.74998 3.3C5.29998 3.5 4.89998 3.775 4.57498 4.1C4.24998 4.45 3.97498 4.825 3.77498 5.3C3.57498 5.75 3.47498 6.25 3.47498 6.75C3.47498 7.275 3.57498 7.75 3.77498 8.2C3.97498 8.65 4.22498 9.05 4.57498 9.4C4.89998 9.75 5.29998 10 5.74998 10.2C6.19998 10.4 6.67498 10.5 7.19998 10.5C7.82498 10.5 8.39998 10.375 8.89998 10.1C9.39998 9.825 9.84998 9.45 10.175 9L9.27498 8.325C9.04998 8.675 8.74998 8.95 8.37498 9.15C7.99998 9.35 7.59998 9.45 7.17498 9.45C6.82498 9.45 6.49998 9.375 6.17498 9.225C5.87498 9.075 5.59998 8.875 5.34998 8.65C5.12498 8.4 4.92498 8.125 4.79998 7.8C4.67498 7.475 4.59998 7.125 4.59998 6.75C4.59998 6.375 4.67498 6.025 4.79998 5.7C4.92498 5.375 5.12498 5.075 5.34998 4.825Z" fill="white"/>
</svg>
